<svg xmlns="http://www.w3.org/2000/svg" width="2939.75" height="354" viewBox="0 0 2939.75 354">
  <metadata><?xpacket begin="﻿" id="W5M0MpCehiHzreSzNTczkc9d"?>
<x:xmpmeta xmlns:x="adobe:ns:meta/" x:xmptk="Adobe XMP Core 5.6-c138 79.159824, 2016/09/14-01:09:01        ">
   <rdf:RDF xmlns:rdf="http://www.w3.org/1999/02/22-rdf-syntax-ns#">
      <rdf:Description rdf:about=""/>
   </rdf:RDF>
</x:xmpmeta>
                                                                                                    
                                                                                                    
                                                                                                    
                                                                                                    
                                                                                                    
                                                                                                    
                                                                                                    
                                                                                                    
                                                                                                    
                                                                                                    
                                                                                                    
                                                                                                    
                                                                                                    
                                                                                                    
                                                                                                    
                                                                                                    
                                                                                                    
                                                                                                    
                                                                                                    
                                                                                                    
                           
<?xpacket end="w"?></metadata>
<defs>
    <style>
      .cls-1, .cls-2 {
        fill: #6c0;
      }

      .cls-1 {
        fill-rule: evenodd;
      }

      .cls-2 {
        font-size: 22px;
        font-family: Montserrat;
        font-weight: 800;
        text-transform: uppercase;
      }

      .cls-3 {
        fill: #fff;
      }
    </style>
  </defs>
  <path id="Forma_1" data-name="Forma 1" class="cls-1" d="M264.635,413H113.316a8.094,8.094,0,0,1-8.18-8V367.975a8.094,8.094,0,0,1,8.18-8H264.635a8.094,8.094,0,0,1,8.18,8v37.019A8.093,8.093,0,0,1,264.635,413ZM121.5,396.989H256.454V375.98H121.5v21.009ZM226.8,349.234a8.094,8.094,0,0,1-8.18-8V284.981a8.182,8.182,0,0,1,16.361,0v56.248A8.1,8.1,0,0,1,226.8,349.234Zm-37.628,0a8.1,8.1,0,0,1-8.181-8V284.981a8.183,8.183,0,0,1,16.362,0v56.248A8.1,8.1,0,0,1,189.176,349.234Zm-37.629,0a8.1,8.1,0,0,1-8.181-8V284.981a8.182,8.182,0,0,1,16.361,0v56.248A8.094,8.094,0,0,1,151.547,349.234Zm113.088-82.995H113.316a8.094,8.094,0,0,1-8.18-8v-37.02a8.1,8.1,0,0,1,8.18-8.006H180.8V193.435l-50.743-15.513a8.026,8.026,0,0,1-5.741-7.641V89.62a7.949,7.949,0,0,1,3.335-6.449,8.318,8.318,0,0,1,7.285-1.191l54.5,16.663L243.021,82.26a8.328,8.328,0,0,1,7.286,1.192,7.95,7.95,0,0,1,3.334,6.449v80.661a8.025,8.025,0,0,1-5.74,7.641l-50.743,15.514v19.492h67.478a8.1,8.1,0,0,1,8.181,8.006v37.02A8.1,8.1,0,0,1,264.635,266.239ZM121.5,250.228H256.454V229.219H121.5v21.009Zm75.66-137.172v63.887l40.122-12.267V100.789ZM140.673,164.4L180.8,176.661V112.775l-40.123-12.266V164.4ZM105.6,202.846a8.255,8.255,0,0,1-5.087-1.74L70.339,177.623a7.891,7.891,0,0,1-1.311-11.249,8.3,8.3,0,0,1,11.495-1.282l2.715,2.112,1.432-5.357a8.2,8.2,0,0,1,9.984-5.718A7.993,7.993,0,0,1,100.5,165.9l-3.261,12.2L110.7,188.574a7.89,7.89,0,0,1,1.312,11.249A8.235,8.235,0,0,1,105.6,202.846Zm166.752,0a8.237,8.237,0,0,1-6.408-3.023,7.891,7.891,0,0,1,1.311-11.249l13.46-10.476-3.262-12.2a7.991,7.991,0,0,1,5.843-9.772,8.2,8.2,0,0,1,9.985,5.718l1.433,5.358,2.714-2.112a8.3,8.3,0,0,1,11.493,1.282,7.89,7.89,0,0,1-1.31,11.249l-30.173,23.483A8.257,8.257,0,0,1,272.352,202.846ZM62.4,160.114a8.236,8.236,0,0,1-6.28-2.871l-6.975-8.165a7.889,7.889,0,0,1,1.03-11.277A8.3,8.3,0,0,1,61.7,138.809l6.975,8.165a7.888,7.888,0,0,1-1.03,11.277A8.258,8.258,0,0,1,62.4,160.114Zm253.151,0a8.252,8.252,0,0,1-5.242-1.863,7.888,7.888,0,0,1-1.03-11.277l6.976-8.165a8.3,8.3,0,0,1,11.523-1.007,7.888,7.888,0,0,1,1.03,11.277l-6.976,8.165A8.24,8.24,0,0,1,315.551,160.114Zm-20.593-10.533a8.176,8.176,0,0,1-7.7-5.293l-3.687-10.011a7.961,7.961,0,0,1,4.921-10.246,8.231,8.231,0,0,1,10.471,4.816l3.687,10.012a7.961,7.961,0,0,1-4.922,10.246A8.335,8.335,0,0,1,294.958,149.581ZM83,149.581a8.33,8.33,0,0,1-2.773-.476A7.96,7.96,0,0,1,75.3,138.86l3.686-10.012a8.229,8.229,0,0,1,10.469-4.817,7.96,7.96,0,0,1,4.922,10.245l-3.686,10.011A8.176,8.176,0,0,1,83,149.581ZM315.55,128.815a8.28,8.28,0,0,1-4.1-1.086,7.913,7.913,0,0,1-2.962-10.944l5.466-9.2a8.28,8.28,0,0,1,11.185-2.9,7.913,7.913,0,0,1,2.961,10.944l-5.465,9.2A8.217,8.217,0,0,1,315.55,128.815Zm-253.148,0a8.215,8.215,0,0,1-7.081-3.984l-5.466-9.2a7.913,7.913,0,0,1,2.961-10.944A8.28,8.28,0,0,1,64,107.583l5.466,9.2a7.913,7.913,0,0,1-2.962,10.944A8.273,8.273,0,0,1,62.4,128.815Zm19.912-13.206a8.32,8.32,0,0,1-3.26-.666,7.942,7.942,0,0,1-4.238-10.535l4.339-9.759A8.252,8.252,0,0,1,89.919,90.5a7.941,7.941,0,0,1,4.238,10.534l-4.338,9.76A8.19,8.19,0,0,1,82.314,115.609Zm213.325,0a8.192,8.192,0,0,1-7.506-4.814l-4.337-9.76A7.94,7.94,0,0,1,288.035,90.5,8.249,8.249,0,0,1,298.8,94.649l4.337,9.759a7.941,7.941,0,0,1-4.239,10.535A8.306,8.306,0,0,1,295.639,115.609ZM64.263,95.266A8.31,8.31,0,0,1,61,94.6a7.941,7.941,0,0,1-4.239-10.534l4.338-9.76a8.251,8.251,0,0,1,10.764-4.148,7.941,7.941,0,0,1,4.24,10.534l-4.338,9.76A8.188,8.188,0,0,1,64.263,95.266Zm249.426,0a8.19,8.19,0,0,1-7.5-4.814l-4.339-9.76a7.94,7.94,0,0,1,4.238-10.534,8.25,8.25,0,0,1,10.765,4.148l4.339,9.76A7.94,7.94,0,0,1,316.948,94.6,8.3,8.3,0,0,1,313.689,95.266ZM93.31,80.354a8.251,8.251,0,0,1-5.439-2.028,7.885,7.885,0,0,1-.665-11.3l4.854-5.333a8.306,8.306,0,0,1,11.551-.651,7.885,7.885,0,0,1,.665,11.3l-4.855,5.333A8.243,8.243,0,0,1,93.31,80.354Zm191.331,0a8.246,8.246,0,0,1-6.112-2.681l-4.854-5.333a7.887,7.887,0,0,1,.669-11.3,8.307,8.307,0,0,1,11.55.654l4.853,5.333a7.886,7.886,0,0,1-.669,11.3A8.25,8.25,0,0,1,284.641,80.354Z" transform="translate(-47.25 -59)"/>
  <text id="MASTERJOBs.TECH" class="cls-2" transform="translate(283.578 265.4) scale(11.811 11.8)">MASTERJOBs<tspan class="cls-3">.TECH</tspan></text>
</svg>
